<svg xmlns="http://www.w3.org/2000/svg" fill="none" viewBox="0 0 668 720">
  <g clip-path="url(#a)">
    <path fill="#A5DEFF" fill-rule="evenodd" d="M333.06 665.59c-98.3 1.24-207.88-19.74-260.92-102.44-51.4-80.12-7.26-179.83 21.73-270.47 27.4-85.7 54.1-178.15 134.63-218.42 86.36-43.18 191.13-34.2 275.04 13.56 82.6 47.01 135.61 132.87 147.67 227.06 11.46 89.54-26.95 175.16-87.62 242.05-60.03 66.17-141.14 107.52-230.53 108.66Z" clip-rule="evenodd"/>
    <g clip-path="url(#b)">
      <path fill="#FFD500" d="M432.68 469c43.26-4.94 114.24 8.54 53.48 93.92-60.3 84.75-71.98 138.04-39.6 127.56-9 3.36-4.89 15.5-9.54 20.42-36.04 5.73-36.7-42.7 43.79-148.97 19.37-28.25 32.3-83.26-44.07-80.3L432.68 469Z"/>
      <path fill="#005BBB" d="M427.84 452.94c48.89-11.16 102.22-15.55 47.88 85.63-53.78 100.15 3.27 92.65 39.54 76.01-8.93 4.61 1.88 11.94-2.52 17.86-40.43 11.05-105.7 7.68-43.36-94.24 17.14-33.38 49.68-87.15-37.67-73.73l-3.87-11.53Z"/>
      <ellipse cx="183.45" cy="178.1" fill="#0D070C" rx="13.07" ry="20.54" transform="rotate(-5.63 183.45 178.1)"/>
      <ellipse fill="#0D070C" rx="13.07" ry="20.54" transform="scale(-1 1) rotate(24.37 -479.59 -662.8)"/>
      <path fill="#fff" fill-rule="evenodd" d="M231.97 88.34c-24.88 6.99-70.02 30.94-51.59 70.86 12.36 26.76 5.9 38.82-1.08 51.86-6.04 11.27-12.47 23.28-7.46 46.14 4.54 20.77 14 33.63 23.44 46.45 12.97 17.63 25.91 35.21 26.03 73.23.16 52.55 38.79 191.66 58.08 254.65L370.94 607 231.97 88.34Zm.24.9c25.04-6.38 76.11-8.21 80.1 35.58 2.68 29.2 18.09 37.65 34.21 46.5 14.09 7.72 28.72 15.74 35.86 38.17 6.68 20.99 1.94 36.48-2.8 52-6.13 20.06-12.28 40.18 6.14 72.3 26.13 45.6 62.24 185.38 77.02 249.58L371.2 607.9l-139-518.66Z" clip-rule="evenodd"/>
      <ellipse fill="url(#c)" rx="31.6" ry="44.51" transform="scale(-1 1) rotate(40.38 -472.5 -143.02)"/>
      <ellipse fill="url(#d)" rx="31.6" ry="44.51" transform="scale(-1 1) rotate(-17.75 575.33 1247.78)"/>
      <path fill="#005BBB" d="M435.7 476.83c-58.53 46.4-148.13 59.33-185 53.8l6.25 21.62c84.84 18.11 158.01-28.82 184.93-53.97l-6.18-21.45Z"/>
      <path fill="#FFD500" d="M441.88 497.55c-69.17 58.77-148.2 59.5-185.18 54.4l5.26 16.84c85.2 17.12 159.69-21.79 186.1-47.25l-6.18-23.99Z"/>
      <ellipse cx="313.68" cy="132.45" fill="#fff" opacity=".5" rx="5.86" ry="9.21" transform="rotate(9.05 313.68 132.45)"/>
      <ellipse cx="180.64" cy="170.25" fill="#fff" opacity=".5" rx="5.86" ry="9.21" transform="rotate(9.05 180.64 170.25)"/>
      <path fill="#fff" d="M354.87 567.08C194.65 598.28 229 815.43 266.2 920.11c187.4 61.3 537.1 123.71 436.77-117.03-100.33-240.75-232.2-268.8-285.6-252.75l-62.5 16.75Z"/>
      <path fill="#FF6B0A" d="M208.68 205.28c-19.71-62.01 37.7-88.63 37.66-87.78 64.9 0 73.96 55.57 73.96 64.15 0 23.63 41.94 33.27 37.12 59.18-4.82 25.9 8.15 73.7 8.07 109.5-.04 21.94-6.4 31.64-11.79 35.12 1.59-.4.95-.15-.61.38a9.03 9.03 0 0 1-3.85 1.24c1.43-.45 2.83-.9 3.85-1.25.2-.11.4-.23.61-.37-2.08.54-8 2.23-20.7 5.98-35.84 10.56-50.78-36.19-96.4-81.97-45.63-45.78-3.29-26.67-27.92-104.18Z"/>
      <path fill="#1F0C02" d="M326.84 368.42c-29.54 5.21-56.03-56.36-65.59-87.8 16.7-8.67 53.69-24.44 68.1-18.25 18.03 7.74 34.41 99.54-2.51 106.05Z"/>
      <path fill="#724B3B" d="M330.52 358.73c19.53-7.94 1.3-50.46-10.25-70.73l-39.23 10.52c8.35 23.38 29.95 68.15 49.48 60.21Z"/>
      <path fill="#6B3B28" d="M324.05 343.5c3.37-4.1-14.45-46.23-23.79-66.78l-8.37 3.23c9.31 22.9 28.78 67.65 32.16 63.56Z"/>
      <path fill="#ED5E00" d="M243 259.4c8.37-46.7-9.16-66.66-18.97-70.8 19.57-48.17 60.77-34.17 78.92-21.15-12.12 46.75-3.68 9.69 28 68.39 25.34 46.96-3.2 72.88-20.63 79.97-25.92.66-75.68-9.7-67.32-56.4Z"/>
      <path fill="#FF8E3D" d="M339.02 256.11c-63-50.4-84.79 4.67-87.8 38.51 7.59 11.5 30.27 31.82 60.26 21.08 30-10.75 30.86-44.2 27.54-59.59Z"/>
      <path fill="#FD7411" d="M285.36 262.01c-1.94-5.2-6.4-14.6-8.72-10.54-2.33 4.07 4.84 8.73 8.72 10.54Zm10.17-2.71c-1.77-5.26-4.23-15.37.14-13.68 4.37 1.7 1.73 9.83-.14 13.69Z"/>
      <path fill="#373500" d="m255.92 41.02 16.35 44.7c-18.6 30.83-67.36 34.41-89.41 32.35l-16-45.8 89.06-31.25Z"/>
      <path fill="#373500" d="M272.27 85.72c.85 26.3-17 67.47-89.41 32l89.41-32Z"/>
      <ellipse cx="211.5" cy="56.62" fill="#373500" rx="47.27" ry="8.15" transform="rotate(-19.03 211.5 56.62)"/>
      <path fill="#4B4800" d="m255.92 41.02 16.35 44.7c-18.6 30.83-67.36 34.41-89.41 32.35l-16-45.8s7.7-.96 12.36-2.54c5.6-1.9 13.45-6.9 13.45-6.9l38.53 31.25V47.56s8.38 1.39 13.45 0c4.9-1.35 11.27-6.54 11.27-6.54Z"/>
      <path fill="#FFD500" d="M204.57 61.4c.28.05.51.08.73.14 1.8.5 3.12 1.44 4.13 3.2.42.73.77 1.54 1.15 2.3.34.68.66 1.35 1.01 2.02.1.17.1.26-.08.38-.38.23-.64.6-.64 1.11 0 .46.19.8.51 1.01.34.23.7.21 1.05.06.17-.09.26-.22.28-.45.22-1.75.09-3.46-.33-5.15-.36-1.4-.94-2.68-1.48-3.97-.3-.74-.58-1.5-.9-2.23-.2-.47-.36-.92-.43-1.43a3.8 3.8 0 0 1 .12-1.55c.43.21.78.54 1.03.96.24.4.43.85.6 1.28.19.47.32.97.48 1.43.42 1.24.82 2.49 1.28 3.71a11.9 11.9 0 0 0 3.5 5.03c.2.19.38.17.6.04.53-.32.77-1.01.55-1.6-.2-.56-.82-.85-1.38-.61-.2.08-.24 0-.28-.19a149.4 149.4 0 0 0-.79-3.03c-.29-1.15-.63-2.27-.62-3.5.02-1.6.45-2.88 1.25-4.21l.21-.32.1.27 5.6 15.08c.1.28.1.28-.14.4l-2.76 1.34c-.16.08-.21.16-.18.36a6.93 6.93 0 0 1-.63 4.35c-.14.28-.24.6-.36.91-.78-.43-1.68-.55-2.42-1.14a6.4 6.4 0 0 1-1.57-1.74c-.1-.16-.18-.17-.32-.1l-2.8 1.35c-.17.08-.25.07-.33-.14l-5.63-15.16c-.03-.02-.05-.07-.1-.21Zm1.9 1.85-.08.06.1.28 2.67 7.19c.15.4.15.4.53.22.13-.06.19-.14.16-.31-.04-.56.1-1.06.4-1.48.12-.18.1-.31.01-.49-.44-.86-.9-1.72-1.3-2.6a6.06 6.06 0 0 0-1.61-2.15c-.3-.27-.59-.48-.88-.72Zm9.57-4.59c-.03.01-.04 0-.07.02l-.08.4c-.15 1.02-.3 1.82-.07 2.8.3 1.26.63 2.5.94 3.75.03.16.1.25.28.28.48.06.89.28 1.22.7.15.19.3.18.58-.03.17-.13.04-.26 0-.38l-2.72-7.31a.75.75 0 0 0-.08-.23Zm-3.37 14.11-.23.05c-.8.17-1.52.04-2.07-.7-.08-.1-.14-.14-.24-.07l-.25.12c-.11.05-.14.13-.1.26l1.13 2.97c.01.05.15.12.2.1.63-.29 1.27-.6 1.89-.91a.4.4 0 0 0 .1-.22l-.43-1.6Zm4.96-2.4.72 1.47c.07.14.16.1.25.05.6-.29 1.17-.58 1.77-.85.18-.1.21-.2.13-.4-.34-.87-.66-1.76-.99-2.65-.15-.4-.15-.4-.51-.23-.1.05-.2.1-.18.25.08.88-.26 1.54-.83 2.08l-.36.28Zm-3.83-2.52c.05 1.17.09 2.32-.07 3.48.46.1.9.2 1.34.28.06.02.17-.06.2-.13.23-.36.42-.73.65-1.08.07-.12.06-.2-.04-.28-.72-.6-1.34-1.33-1.92-2.1a.85.85 0 0 1-.16-.17Zm.88 7.13c.2.71 1.35 1.77 1.8 1.76l.01-.04-.76-2.04c-.02-.05-.13-.1-.18-.08-.3.11-.58.26-.87.4Zm2.78 1.31c.38-.57.44-2.26.16-2.74l-.79.38c-.15.07-.17.16-.11.32l.61 1.66c.03.12.08.24.13.38Zm-2.76-2.54c.15-.07.32-.14.46-.24.04-.02.1-.17.07-.2-.28-.55-.8-.9-1.33-.79-.11.02-.16.08-.14.2.08.39.18.76.27 1.15.04.14.13.16.23.1l.44-.22Zm2.13-1.03.4-.2c.15-.05.2-.16.12-.32l-.48-.93c-.08-.15-.17-.15-.29-.03a1.67 1.67 0 0 0-.4 1.6c.02.06.14.11.19.1.16-.06.31-.15.46-.22ZM434.5 471c43.27-4.95 112.42 6.54 51.66 91.92-60.3 84.75-71.98 138.04-39.6 127.56-9 3.36-4.89 15.5-9.54 20.42-36.04 5.73-36.7-42.7 43.79-148.97 19.37-28.25 33.07-83.4-43.31-80.43l-3-10.5Z"/>
      <path fill="#005BBB" d="M429.5 455c48.89-11.17 100.56-17.61 46.22 83.57-53.78 100.15 3.27 92.65 39.53 76.01-8.92 4.61 1.9 11.94-2.5 17.86-40.44 11.05-105.7 7.68-43.37-94.24C486.5 504.83 516 449.5 433 462.5l-3.5-7.5Z"/>
    </g>
  </g>
  <defs>
    <radialGradient id="c" cx="0" cy="0" r="1" gradientTransform="scale(31.5961 44.505) rotate(90 0 1)" gradientUnits="userSpaceOnUse">
      <stop stop-color="#FBB"/>
      <stop offset="1" stop-color="#FBB" stop-opacity="0"/>
    </radialGradient>
    <radialGradient id="d" cx="0" cy="0" r="1" gradientTransform="scale(31.5961 44.505) rotate(90 0 1)" gradientUnits="userSpaceOnUse">
      <stop stop-color="#FBB"/>
      <stop offset="1" stop-color="#FBB" stop-opacity="0"/>
    </radialGradient>
    <clipPath id="a">
      <path fill="#fff" d="M0 0h668v720H0z"/>
    </clipPath>
    <clipPath id="b">
      <path fill="#fff" d="M0 0h609v703H0z" transform="translate(60 17)"/>
    </clipPath>
  </defs>
</svg>
