<svg xmlns="http://www.w3.org/2000/svg" fill="none" viewBox="0 0 374 374">
  <path fill="url(#a)" fill-rule="evenodd" d="M77.38 120.37c16.51-33.73 47.13-48.77 84.46-52.6 36.17-3.72 77.7 15.76 103.6 41.26 24.5 24.11 51.42 49.15 51.27 83.54-.16 36.88-21.27 71.05-52.01 91.43-30.26 20.05-68.67 23.33-102.86 11.21-32.5-11.52-63.95-24.73-76.3-56.94-12.21-31.87-23.18-87.23-8.16-117.9Z" clip-rule="evenodd"/>
  <path stroke="#FF6B0A" stroke-linecap="round" stroke-width="3" d="m193.68 285.46-.87 30.05m-14.33 8.26 16.07-8.75m-6.25 10.35 6.92-9.92m-21.05 1.45 18.75-2.1"/>
  <path fill="url(#b)" d="M141.44 252.5c10.92 41.3 55.2 97.01 144.95-10.39-52.9-23.47-155.95-54.26-144.95 10.4Z"/>
  <path fill="url(#c)" d="M181.36 160.93c8.32-19.97-3.46-27.73-10.4-29.12-5.2 3.47-23.7 10.4-14.55 10.4 9.15 0 6.59 12.48 4.16 18.72-44.91 60.71-18.71 94.6-5.2 103.96 15.6-6.23 41.59-20.58 20.8-28.07-26-9.35-5.2-50.94 5.2-75.9Z"/>
  <ellipse fill="url(#d)" rx="10.09" ry="29.21" transform="scale(-1 1) rotate(89.48 -245.96 47.63)"/>
  <path stroke="#FF6B0A" stroke-linecap="round" stroke-width="3" d="M210.57 295.36v24.44m-16.64 8.85L210 319.9m-6.25 10.34 6.92-9.91m-21.05 1.44 18.75-2.1"/>
  <path fill="#D9D9D9" d="M211.1 183.9c-63.83 20.61-50.62 41.42-36.03 49.25 4.2 6.82 17.42-2.33 23.5-7.77.12-3.27 2.23-11 9.77-15.78 7.54-4.77 5.36-6.75 3.33-7.15 10.57-8.86 4.77-8.27.55-6.87 33.8-18.32 10.79-15.79-1.11-11.69Z"/>
  <path fill="#FAFAFA" d="M213.43 185.03c-64.65 22.04-50.75 42.67-35.71 50.23 4.43 6.76 17.72-2.7 23.8-8.29.05-3.29 2.04-11.1 9.62-16.05 7.59-4.95 5.33-6.9 3.25-7.26 10.59-9.11 4.69-8.4.42-6.9 27.8-19.84 10.66-16.08-1.38-11.72Z"/>
  <path fill="#fff" d="M145.25 157.2c19.53 10.77 28.6 4.49 30.7 0 14.27-8.49 10.96-37.44-13.47-37.44s-41.66 23.97-17.23 37.44Z"/>
  <path fill="#DF5B04" d="m158.63 149.3-3.11-2.01a26.5 26.5 0 0 0-18.87-3.83.95.95 0 0 0-.76.7l-6.3 25.54a2 2 0 0 0 3.17 2.06l25.97-20.38c.7-.54.64-1.6-.1-2.09Z"/>
  <path fill="#FF6B0A" d="m159.19 149.14-2.56-1.58a29.34 29.34 0 0 0-20.16-4.06c-.27.05-.52.2-.68.42l-15.7 21.6c-1.21 1.67.6 3.86 2.47 2.99l36.48-17.02a1.33 1.33 0 0 0 .15-2.35Z"/>
  <circle cx="136.68" cy="136.88" r="2.51" fill="#797979"/>
  <circle cx="162.48" cy="139.39" r="2.51" fill="#797979"/>
  <path fill="#0C0632" d="m144.28 105.52.57-3 35.85 6.8-3.08 16.26-1.26-.23-29.9-3.78-4.7-2.78 2.15-11.31-.18-.01.03-1.95h.52Z"/>
  <ellipse cx="162.19" cy="109.02" fill="#0C0632" rx="18.77" ry="1.87" transform="rotate(10.74 162.2 109.02)"/>
  <path fill="#0C0632" d="M141.34 118.76c-12.21.7-23.8 16.51 27.15 8.17l-27.15-8.17Z"/>
  <path fill="#494600" d="M141.26 118.63c1.9 5.66 32.73 11.2 36.9 7l2.44-13.09c-5.44.74-15.11-4.17-23.47-2.73l-10.69 9.5-2.68-13.8-2.5 13.12Z"/>
  <ellipse cx="162.73" cy="106.15" fill="#0C0632" rx="18.24" ry="1.87" transform="rotate(10.74 162.73 106.15)"/>
  <ellipse cx="162.46" cy="109.07" fill="#0C0632" rx="18.5" ry="1.87" transform="rotate(10.74 162.46 109.07)"/>
  <path fill="#FFD500" d="m148.22 107.61.14.19c.32.47.45.94.35 1.5a41.74 41.74 0 0 0-.3 1.32c0 .05-.02.07-.09.05-.13-.03-.25-.01-.35.1a.3.3 0 0 0-.07.3c.04.12.12.19.23.23.06.02.1.01.15-.03.37-.3.66-.67.87-1.1.17-.35.28-.73.4-1.1l.2-.63c.04-.14.09-.26.16-.38a.9.9 0 0 1 .31-.28.7.7 0 0 1 .06.4c-.02.14-.06.27-.1.39-.04.13-.1.26-.15.38l-.4 1.01a3.32 3.32 0 0 0-.12 1.74c.01.08.06.11.13.13.18.05.36-.04.42-.2s-.03-.34-.2-.41c-.06-.03-.06-.05-.03-.1l.38-.77c.14-.29.27-.58.5-.82.3-.32.63-.49 1.06-.58l.1-.02-.02.07-1.5 4.18c-.03.08-.03.08-.1.05l-.88-.3c-.05-.03-.08-.02-.1.03-.23.35-.54.6-.95.73l-.25.1c-.1-.24-.28-.46-.34-.73a1.83 1.83 0 0 1-.04-.67c.01-.06 0-.08-.05-.1l-.89-.31c-.05-.02-.07-.04-.05-.1l1.5-4.2.02-.07Zm.1.77h-.03l-.03.07-.72 2c-.04.11-.04.11.08.15.04.02.07.02.1-.02a.5.5 0 0 1 .36-.22c.06 0 .08-.04.1-.1.05-.26.1-.52.17-.78.07-.28.08-.5.03-.77l-.07-.33Zm3.02 1.1-.02-.02-.1.07c-.22.17-.4.3-.53.54l-.47.94c-.02.05-.02.08.01.12.1.11.15.24.15.4 0 .06.04.1.14.1.06.02.05-.03.07-.06l.72-2.03a.18.18 0 0 0 .03-.07Zm-3.37 2.1-.06-.04c-.21-.13-.35-.3-.34-.57 0-.04 0-.06-.04-.07a1.75 1.75 0 0 0-.08-.03c-.03 0-.05 0-.07.04l-.29.82c0 .02.01.06.03.07l.6.21c.01 0 .05 0 .06-.02l.2-.4Zm1.58.56-.1.45c-.02.04 0 .05.04.06l.56.2c.05.02.08 0 .1-.05l.26-.74c.04-.11.04-.11-.07-.15-.03-.01-.06-.02-.09.01-.14.2-.34.25-.57.24l-.13-.02Zm-.41-1.3c-.2.24-.4.48-.66.68l.25.33c.02.02.05.03.08.02l.34-.08c.04-.01.05-.03.04-.07a3.53 3.53 0 0 1-.05-.82v-.06Zm-1.11 1.6c-.09.19-.02.64.08.73h.01l.2-.57c.01-.01 0-.05-.02-.05-.09-.05-.18-.07-.27-.1Zm.39.85c.19-.04.51-.36.54-.52l-.25-.09c-.05-.01-.07 0-.09.04l-.16.46a.8.8 0 0 0-.04.1Zm-.16-1.09.15.05c.01 0 .05-.01.05-.03a.4.4 0 0 0-.16-.43c-.03-.02-.05-.02-.07.01l-.15.28c-.01.04 0 .06.04.08.04 0 .09.02.14.04Zm.67.24.13.05c.04.02.08 0 .09-.04l.06-.29c0-.04-.01-.06-.06-.06a.43.43 0 0 0-.39.23c0 .02.01.05.03.06l.14.05Z"/>
  <ellipse cx="170.46" cy="150.67" fill="url(#e)" rx="9.32" ry="10.17" transform="rotate(40.38 170.46 150.67)"/>
  <ellipse cx="235.26" cy="173.97" fill="#C4C4C4" rx="39.46" ry="54.06" transform="rotate(-49.53 235.26 173.97)"/>
  <ellipse cx="238.42" cy="170.26" fill="#fff" rx="34.6" ry="54.06" transform="rotate(-49.53 238.42 170.26)"/>
  <path fill="#C4C4C4" d="m225.28 171.57 32.98-27.03-18.92 36.76c-9.95 1.3-13.52-5.95-14.06-9.73Z"/>
  <ellipse cx="258.64" cy="144.54" fill="#C4C4C4" rx="9.17" ry="12.57" transform="rotate(-49.53 258.64 144.54)"/>
  <ellipse cx="259.37" cy="143.68" fill="#fff" rx="8.04" ry="12.57" transform="rotate(-49.53 259.37 143.68)"/>
  <path fill="#C4C4C4" d="m256.1 143.8 9.73-7.91-5.59 10.76c-2.93.38-3.99-1.74-4.14-2.85Z"/>
  <path fill="#D9D9D9" d="M238.14 194.7c-63.84 20.62-50.63 41.43-36.04 49.26 4.2 6.82 17.42-2.33 23.5-7.76.12-3.28 2.23-11.02 9.77-15.79 7.54-4.77 5.36-6.75 3.33-7.15 10.56-8.86 4.77-8.27.55-6.87 33.8-18.32 10.79-15.78-1.11-11.69Z"/>
  <path fill="#F8F8F8" d="M240.46 195.85c-64.65 22.03-50.75 42.66-35.71 50.22 4.43 6.77 17.71-2.7 23.8-8.29.05-3.29 2.03-11.1 9.62-16.05 7.59-4.95 5.33-6.9 3.25-7.26 10.59-9.11 4.69-8.4.42-6.9 27.8-19.84 10.66-16.08-1.38-11.72Z"/>
  <defs>
    <linearGradient id="a" x1="75.73" x2="298.27" y1="122.76" y2="251.24" gradientUnits="userSpaceOnUse">
      <stop stop-color="#A5DEFF"/>
      <stop offset="1" stop-color="#BDE7FF"/>
    </linearGradient>
    <linearGradient id="b" x1="174.14" x2="290.37" y1="257.08" y2="239.52" gradientUnits="userSpaceOnUse">
      <stop stop-color="#F2F2F2"/>
      <stop offset="1" stop-color="#fff"/>
    </linearGradient>
    <linearGradient id="c" x1="159.81" x2="159.81" y1="131.81" y2="264.89" gradientUnits="userSpaceOnUse">
      <stop stop-color="#fff"/>
      <stop offset="1" stop-color="#F2F2F2"/>
    </linearGradient>
    <radialGradient id="d" cx="0" cy="0" r="1" gradientTransform="matrix(0 29.2087 -10.0949 0 10.1 29.2)" gradientUnits="userSpaceOnUse">
      <stop stop-color="#D7D7D7"/>
      <stop offset="1" stop-color="#D7D7D7" stop-opacity="0"/>
    </radialGradient>
    <radialGradient id="e" cx="0" cy="0" r="1" gradientTransform="matrix(0 10.1731 -9.32012 0 170.46 150.67)" gradientUnits="userSpaceOnUse">
      <stop stop-color="#FBB"/>
      <stop offset="1" stop-color="#FBB" stop-opacity="0"/>
    </radialGradient>
  </defs>
</svg>
