<svg xmlns="http://www.w3.org/2000/svg" fill="none" viewBox="0 0 374 374">
  <path fill="url(#a)" fill-rule="evenodd" d="M151.56 298.85c-36.54-8.37-75.25-26-87.47-61.4-11.84-34.3 13.47-67.27 32.36-98.25 17.85-29.28 36.05-61.13 69.5-68.82 35.87-8.23 73.88 4.5 100.68 29.74 26.37 24.84 38.3 61.41 34.3 97.39-3.8 34.2-25.72 62.47-54.2 81.8-28.2 19.12-61.96 27.15-95.17 19.54Z" clip-rule="evenodd"/>
  <path fill="#F5F5F5" d="M157.24 314.22c-63.5 0-34.11-80.81 31.02-77.3 49.74 33.56 27.48 77.3-31.02 77.3Z"/>
  <path fill="url(#b)" d="M174.55 166.88c-7.7-18.46 3.2-25.64 9.62-26.92 4.8 3.2 21.92 9.61 13.46 9.61s-6.1 11.54-3.85 17.31c41.54 56.16 17.31 87.5 4.81 96.16-14.42-5.77-38.46-19.04-19.23-25.96 24.04-8.66 4.8-47.12-4.8-70.2Z"/>
  <path fill="#C4C4C4" d="M253.8 171.4c30.6 118.14-2.89 139.42-28.2 117.27-13.96-4.63-7.75.87-5.6-11.73 4.67-1.45-.9-75.98-1.11-90.83-.21-14.86 4.76-11.87 7.27-8.52 2.89-21.65 7.54-11.42 9.5-3.6 1.7-55.16 12.8-24.7 18.14-2.59Z"/>
  <path fill="url(#c)" d="M252.56 172.16c30.6 118.15-2.89 139.42-28.2 117.27-13.96-4.63-7.75.87-5.6-11.73 4.67-1.45-.9-75.98-1.11-90.83-.21-14.86 4.76-11.87 7.27-8.52 2.89-21.65 7.54-11.42 9.5-3.6 1.7-55.16 12.8-24.7 18.14-2.59Z"/>
  <path fill="#fff" d="M227.29 176.76c-27.27 15.04-39.93 6.27-42.85 0-19.91-11.83-15.3-52.24 18.8-52.24 34.08 0 58.14 33.45 24.05 52.24Z"/>
  <path fill="#DF5B04" d="m209.72 168.36 2.45-2.43c5.39-5.33 13.16-8.94 22.2-10.31.62-.1 1.3.11 1.74.53l22.24 21.17c1.38 1.32.14 3-1.92 2.59l-45.2-8.94c-1.57-.31-2.4-1.74-1.51-2.61Z"/>
  <path fill="#010101" d="M239.72 139.72h15v22h-15z"/>
  <circle r="11" fill="#010101" transform="matrix(-1 0 0 1 239.72 150.72)"/>
  <circle r="11" fill="#222" transform="matrix(-1 0 0 1 254.72 150.72)"/>
  <circle r="8" fill="#8DCCF0" transform="matrix(-1 0 0 1 254.72 150.72)"/>
  <circle r="7" fill="#fff" opacity=".29" transform="matrix(-1 0 0 1 254.72 150.72)"/>
  <ellipse fill="#fff" rx="2.5" ry="3.8" transform="scale(-1 1) rotate(45 -307.45 -236.35)"/>
  <path fill="#FF6B0A" d="m209.1 168.27 1.71-1.63c5.9-5.65 14.24-9.5 23.9-11.06.44-.07.91 0 1.33.18l32.66 14.03c2.15.93 1.7 3.25-.62 3.17L211.09 171c-1.83-.06-3.04-1.73-1.99-2.74Z"/>
  <path fill="#010101" d="M211.72 140.72h15v22h-15z"/>
  <circle r="11" fill="#010101" transform="matrix(-1 0 0 1 211.72 151.72)"/>
  <circle r="11" fill="#222" transform="matrix(-1 0 0 1 226.72 151.72)"/>
  <circle r="8" fill="#8DCCF0" transform="matrix(-1 0 0 1 226.72 151.72)"/>
  <circle r="7" fill="#fff" opacity=".29" transform="matrix(-1 0 0 1 226.72 151.72)"/>
  <ellipse fill="#fff" rx="2.5" ry="3.8" transform="scale(-1 1) rotate(45 -294.65 -202.05)"/>
  <path fill="#0C0632" d="m228.63 104.64-.8-4.18-50.03 9.48 4.3 22.7 1.76-.33 41.73-5.26 6.55-3.9-2.99-15.77.25-.02-.04-2.72h-.73Z"/>
  <ellipse fill="#0C0632" rx="26.19" ry="2.6" transform="scale(-1 1) rotate(10.74 -684.52 -1028.64)"/>
  <path fill="#0C0632" d="M232.73 123.12c17.05.98 33.23 23.04-37.88 11.4l37.88-11.4Z"/>
  <path fill="#494600" d="M232.85 122.94c-2.65 7.9-45.67 15.63-51.49 9.76l-3.4-18.26c7.58 1.03 21.08-5.82 32.75-3.82l14.9 13.27 3.75-19.25 3.5 18.3Z"/>
  <ellipse fill="#0C0632" rx="25.46" ry="2.6" transform="scale(-1 1) rotate(10.74 -662.84 -1026.66)"/>
  <ellipse fill="#0C0632" rx="25.82" ry="2.6" transform="scale(-1 1) rotate(10.74 -684.72 -1026.63)"/>
  <path fill="#FFD500" d="m223.13 107.57-.2.25a2.75 2.75 0 0 0-.48 2.1c.05.33.15.65.22.98l.2.85c.01.08.03.1.12.08.18-.04.36-.02.49.13.12.12.14.27.1.43a.5.5 0 0 1-.32.32c-.08.03-.14.02-.2-.04a4.68 4.68 0 0 1-1.22-1.53c-.25-.5-.4-1.02-.55-1.54l-.29-.89a1.8 1.8 0 0 0-.23-.52c-.1-.16-.25-.3-.43-.4-.08.19-.11.38-.08.58.03.17.08.36.13.53.06.18.15.36.22.53.18.47.38.94.54 1.41.28.8.35 1.6.18 2.43-.01.1-.08.16-.18.18a.48.48 0 0 1-.59-.28.47.47 0 0 1 .29-.57c.08-.04.08-.07.04-.14l-.53-1.07c-.2-.4-.38-.82-.7-1.16a2.74 2.74 0 0 0-1.48-.8l-.15-.03.04.1 2.1 5.83c.03.12.03.12.14.08l1.22-.44c.07-.02.1-.02.15.05.31.5.75.85 1.31 1.02.12.04.24.1.35.15.14-.34.4-.64.48-1.02.07-.31.1-.63.05-.95 0-.07.01-.1.08-.12l1.24-.44c.07-.03.1-.06.06-.14a13750.31 13750.31 0 0 1-2.12-5.95Zm-.12 1.06h.03l.04.1 1 2.79c.06.16.06.16-.1.22-.07.02-.1.01-.14-.04a.77.77 0 0 0-.5-.3c-.1-.01-.12-.06-.14-.13-.08-.37-.15-.74-.25-1.1-.1-.39-.11-.69-.04-1.08.02-.16.06-.3.1-.46Zm-4.22 1.53.02-.01.13.09c.31.23.56.41.74.76.23.43.44.87.66 1.31.04.06.04.1-.01.16a.82.82 0 0 0-.21.55c0 .1-.05.14-.2.16-.08.02-.07-.06-.09-.1l-1.01-2.83a.25.25 0 0 1-.03-.09Zm4.69 2.94.08-.05c.3-.19.5-.44.48-.8 0-.06.01-.08.06-.1l.1-.03c.06-.02.09 0 .1.04l.41 1.16c0 .02-.02.08-.04.08l-.83.3c-.02.01-.08-.01-.09-.03l-.27-.57Zm-2.2.79c.06.2.1.41.15.62.02.05-.02.07-.06.08l-.78.28c-.09.03-.12.01-.15-.07l-.36-1.03c-.06-.15-.06-.15.1-.21.04-.02.09-.03.12.02.2.27.48.35.8.33l.19-.02Zm.58-1.83c.28.34.56.67.9.95l-.34.47c-.02.02-.07.03-.1.03l-.48-.12c-.05-.01-.07-.03-.06-.09.07-.38.08-.76.07-1.14v-.1Zm1.55 2.25c.11.25.02.88-.13 1.01h-.01c-.1-.27-.2-.53-.28-.8-.01-.02.01-.06.03-.07.13-.06.26-.1.39-.14Zm-.55 1.17c-.27-.04-.72-.5-.76-.71l.35-.13c.07-.02.1 0 .12.06l.23.64.06.14Zm.22-1.51c-.06.02-.13.05-.2.06-.02.01-.08-.01-.08-.03-.05-.24.02-.48.22-.6.04-.04.07-.03.1 0l.2.4c.03.05 0 .09-.04.1a2.5 2.5 0 0 0-.2.07Zm-.94.34-.18.06c-.06.03-.1.01-.12-.06l-.08-.4c-.01-.06.01-.09.08-.09.21-.01.46.13.54.33l-.03.08-.21.08Z"/>
  <ellipse fill="url(#d)" rx="13.01" ry="14.2" transform="scale(-1 1) rotate(40.38 -324 -177.35)"/>
  <path fill="#C4C4C4" d="M228.97 176.99c30.6 118.13-2.88 139.41-28.19 117.26-13.96-4.63-7.76.87-5.62-11.73 4.68-1.45-.9-75.98-1.1-90.83-.2-14.86 4.76-11.87 7.27-8.52 2.89-21.65 7.54-11.42 9.51-3.6 1.69-55.16 12.8-24.7 18.13-2.58Z"/>
  <path fill="url(#e)" d="M227.17 177.85c30.6 118.14-2.89 139.41-28.2 117.26-13.96-4.62-7.75.88-5.6-11.72 4.67-1.46-.91-75.98-1.12-90.84-.2-14.85 4.77-11.87 7.28-8.52 2.89-21.65 7.54-11.41 9.5-3.6 1.7-55.16 12.8-24.7 18.14-2.58Z"/>
  <path fill="url(#f)" d="M88.72 263.04h221v60h-221z"/>
  <defs>
    <linearGradient id="a" x1="152.75" x2="221.25" y1="299.78" y2="73.17" gradientUnits="userSpaceOnUse">
      <stop stop-color="#A5DEFF"/>
      <stop offset="1" stop-color="#BDE7FF"/>
    </linearGradient>
    <linearGradient id="b" x1="194.48" x2="194.48" y1="263.04" y2="263.04" gradientUnits="userSpaceOnUse">
      <stop stop-color="#F4F4F4"/>
      <stop offset="1" stop-color="#fff"/>
    </linearGradient>
    <linearGradient id="c" x1="228.7" x2="186.16" y1="292.71" y2="195.36" gradientUnits="userSpaceOnUse">
      <stop stop-color="#F4F4F4"/>
      <stop offset="1" stop-color="#fff"/>
    </linearGradient>
    <linearGradient id="e" x1="239.34" x2="189.98" y1="237.14" y2="237.27" gradientUnits="userSpaceOnUse">
      <stop stop-color="#F4F4F4"/>
      <stop offset="1" stop-color="#fff"/>
    </linearGradient>
    <linearGradient id="f" x1="199.22" x2="199.22" y1="263.04" y2="323.04" gradientUnits="userSpaceOnUse">
      <stop stop-color="#FAFAFA" stop-opacity="0"/>
      <stop offset="1" stop-color="#fff"/>
    </linearGradient>
    <radialGradient id="d" cx="0" cy="0" r="1" gradientTransform="matrix(0 14.1974 -13.0071 0 13 14.2)" gradientUnits="userSpaceOnUse">
      <stop stop-color="#FBB"/>
      <stop offset="1" stop-color="#FBB" stop-opacity="0"/>
    </radialGradient>
  </defs>
</svg>
