<svg xmlns="http://www.w3.org/2000/svg" fill="none" viewBox="0 0 374 374">
  <path fill="url(#a)" fill-rule="evenodd" d="M300.39 230.29c-10.32 35.53-29.87 72.68-65.45 82.72-34.48 9.73-65.54-17.08-95-37.44-27.85-19.25-58.21-39-63.9-72.4-6.08-35.81 8.62-72.55 35-97.53 25.98-24.58 62.7-34.27 97.93-28.3 33.49 5.68 60.1 28.88 77.54 58.05 17.25 28.86 23.26 62.6 13.88 94.9Z" clip-rule="evenodd"/>
  <path fill="#D9D9D9" d="M307.06 207.23c-155.43-18.07-146.38 28.91-122.42 54.67 2.7 15.3 39.4 10.61 57.4 6.36 3.26-5.55 14.9-17.13 35.4-19.02 20.52-1.89 17.7-7.14 13.73-9.53 30.74-6.4 17.81-10.26 7.5-11.39 89.14-3.19 37.6-18.15 8.4-21.09Z"/>
  <path fill="url(#b)" d="M310.97 209.07c-158.48-16.33-147.78 30.93-122.62 56.6 3.24 15.4 40.37 10.22 58.53 5.71 3.12-5.63 14.57-17.44 35.35-19.6 20.77-2.16 17.75-7.42 13.64-9.78 31.01-6.82 17.76-10.56 7.25-11.57 77.72-10.84 37.61-18.76 7.85-21.36Z"/>
  <path stroke="#FF6B0A" stroke-linecap="round" stroke-width="3" d="m168.58 283-26.27 9.8m-12.18 5.96 11.5-6.68m-8.79-.02 8.77-.56m-7.35 11.6 8.37-10.86"/>
  <path fill="#D9D9D9" d="M75.72 182.62C231.9 192.36 214.67 237 186.53 258.1c-5.36 14.58-40.65 3.48-57.62-3.9-2.22-6.04-11.63-19.5-31.48-24.99-19.85-5.49-16.15-10.16-11.82-11.8-29.11-11.75-15.7-13.26-5.36-12.54-87.17-18.93-33.8-24.53-4.53-22.25Z"/>
  <path fill="url(#c)" d="M71.19 185.8c158.86 12 139.96 56.6 110.65 77.41-5.91 14.58-41.54 2.92-58.61-4.73-2.08-6.1-11.26-19.76-31.32-25.56-20.07-5.8-16.16-10.44-11.7-12.04-29.31-12.21-15.6-13.53-5.08-12.67-74.57-24.44-33.7-25.13-3.94-22.42Z"/>
  <path fill="url(#d)" d="M238.28 241.03c-6.72 31.33-51.92 78.8-178.96 18.02 60.93-26 182.02-66.02 178.96-18.02Z"/>
  <path fill="#fff" d="M187.25 159c-6.05-14.5 2.52-20.15 7.56-21.16 3.78 2.52 17.23 7.56 10.58 7.56s-4.79 9.07-3.03 13.6c32.65 44.14 13.6 68.77 3.78 75.57-11.33-4.53-30.23-14.96-15.11-20.4 18.89-6.8 3.78-37.03-3.78-55.17Z"/>
  <ellipse cx="180.5" cy="270.75" fill="url(#e)" rx="10.82" ry="41.94" transform="rotate(74.29 180.5 270.75)"/>
  <path stroke="#FF6B0A" stroke-linecap="round" stroke-width="3" d="m153.14 281-27.44 5.81m-12.66 5.4 12.2-5.29m-8.73-1.04 8.78.46M116.64 297l9.58-9.8"/>
  <path fill="#fff" d="M228.7 166.77c-21.44 11.82-31.38 4.93-33.68 0-15.65-9.3-12.02-41.06 14.77-41.06 26.8 0 45.7 26.29 18.9 41.06Z"/>
  <path fill="#DF5B04" d="m214.01 158.1 3.42-2.2a29.07 29.07 0 0 1 20.7-4.2c.4.07.72.38.82.78l7.06 28.55a2 2 0 0 1-3.18 2.05L213.9 160.4c-.77-.6-.71-1.77.1-2.3Z"/>
  <path fill="#FF6B0A" d="m213.4 157.94 2.8-1.74a32.18 32.18 0 0 1 22.12-4.45c.3.05.56.22.74.46l17.66 24.3c1.21 1.67-.6 3.86-2.46 2.99l-40.7-19a1.46 1.46 0 0 1-.16-2.56Z"/>
  <circle r="2.75" fill="#797979" transform="matrix(-1 0 0 1 238.08 144.49)"/>
  <circle r="2.75" fill="#797979" transform="matrix(-1 0 0 1 209.8 147.24)"/>
  <path fill="#0C0632" d="m229.75 110.1-.63-3.3-39.32 7.46 3.39 17.84 1.38-.26 32.8-4.14 5.14-3.06-2.35-12.4h.19l-.03-2.15h-.57Z"/>
  <ellipse fill="#0C0632" rx="20.59" ry="2.05" transform="scale(-1 1) rotate(10.74 -711.2 -1060.87)"/>
  <path fill="#0C0632" d="M232.97 124.61c13.4.78 26.12 18.11-29.77 8.96l29.77-8.96Z"/>
  <path fill="#494600" d="M233.07 124.47c-2.09 6.2-35.9 12.28-40.47 7.67l-2.68-14.34c5.96.8 16.57-4.58 25.74-3l11.72 10.42 2.94-15.13 2.75 14.38Z"/>
  <ellipse fill="#0C0632" rx="20.01" ry="2.05" transform="scale(-1 1) rotate(10.74 -694.16 -1059.3)"/>
  <ellipse fill="#0C0632" rx="20.29" ry="2.05" transform="scale(-1 1) rotate(10.74 -711.35 -1059.29)"/>
  <path fill="#FFD500" d="m225.43 112.39-.15.2a2.16 2.16 0 0 0-.4 1.65c.05.26.13.51.19.77l.15.67c.01.06.03.08.1.06.14-.03.28-.01.38.1.1.1.11.22.08.34a.39.39 0 0 1-.25.25c-.06.02-.11.01-.17-.03-.4-.33-.71-.74-.95-1.2-.2-.39-.3-.8-.43-1.21-.08-.23-.16-.46-.22-.7-.05-.15-.1-.28-.19-.4a1 1 0 0 0-.34-.32.8.8 0 0 0-.06.45c.02.14.06.28.1.42l.17.42c.15.37.3.73.43 1.1.22.63.27 1.26.14 1.91-.01.09-.06.13-.14.15-.2.05-.4-.05-.46-.23-.06-.17.03-.37.22-.45.07-.03.06-.05.03-.1l-.41-.85c-.16-.32-.3-.64-.55-.9a2.2 2.2 0 0 0-1.16-.64l-.12-.02.03.08 1.64 4.59c.03.08.03.08.12.05l.96-.34c.05-.02.08-.01.12.04.24.4.58.67 1.03.8.1.03.18.08.27.12.11-.27.31-.5.38-.8.05-.25.08-.5.04-.75-.01-.05 0-.08.06-.1l.97-.34c.06-.02.08-.04.06-.1l-1.66-4.62-.01-.07Zm-.1.84h.03c0 .03.02.05.03.08l.78 2.19c.05.12.05.12-.08.17-.05.02-.08.01-.1-.03a.6.6 0 0 0-.4-.23c-.07-.02-.1-.05-.1-.1l-.2-.88c-.08-.3-.1-.54-.04-.84l.08-.36Zm-3.32 1.2.02-.01.1.07c.25.18.44.33.59.6l.52 1.03c.02.04.02.08-.02.13a.65.65 0 0 0-.16.43c0 .08-.04.1-.15.13-.07 0-.06-.05-.07-.09l-.8-2.22a.2.2 0 0 1-.03-.07Zm3.69 2.31.07-.04c.23-.15.38-.34.37-.63 0-.04.01-.06.05-.07l.08-.03c.04-.02.06 0 .08.03l.32.9c0 .02-.01.07-.03.08a19 19 0 0 1-.66.23c-.01 0-.06 0-.07-.02l-.21-.45Zm-1.72.62.11.48c.01.05-.02.06-.05.07l-.61.22c-.07.03-.1 0-.11-.05l-.3-.81c-.04-.13-.04-.13.09-.17.03-.01.06-.02.1.02.15.2.37.27.62.26l.15-.02Zm.45-1.44c.22.27.44.53.71.75l-.27.37c-.02.02-.06.02-.08.02l-.38-.1c-.04 0-.06-.02-.05-.06.06-.3.07-.6.06-.9v-.08Zm1.21 1.77c.1.2.02.7-.1.8v-.01l-.23-.62.03-.06c.1-.05.2-.08.3-.11Zm-.43.92c-.2-.03-.56-.4-.6-.56l.28-.1c.06-.02.08 0 .1.05l.18.5.04.11Zm.18-1.19-.16.05c-.02.01-.06-.01-.06-.02-.04-.19.02-.38.17-.48.03-.02.06-.02.08.01l.16.31c.02.04 0 .07-.04.08l-.15.05Zm-.74.27-.14.05c-.05.02-.08 0-.1-.05l-.06-.31c-.01-.05 0-.07.06-.07.17-.02.37.1.43.25l-.03.07-.16.06Z"/>
  <ellipse fill="url(#f)" rx="10.22" ry="11.16" transform="scale(-1 1) rotate(40.38 -317.53 -193.53)"/>
  <defs>
    <linearGradient id="a" x1="301.37" x2="81.92" y1="229.16" y2="148.84" gradientUnits="userSpaceOnUse">
      <stop stop-color="#A5DEFF"/>
      <stop offset="1" stop-color="#BDE7FF"/>
    </linearGradient>
    <linearGradient id="b" x1="252.07" x2="259.67" y1="203.95" y2="271.35" gradientUnits="userSpaceOnUse">
      <stop stop-color="#fff"/>
      <stop offset="1" stop-color="#F5F5F5"/>
    </linearGradient>
    <linearGradient id="c" x1="130.06" x2="110.64" y1="191.19" y2="256.17" gradientUnits="userSpaceOnUse">
      <stop stop-color="#fff"/>
      <stop offset="1" stop-color="#F9F9F9"/>
    </linearGradient>
    <linearGradient id="d" x1="186.3" x2="111.07" y1="225.29" y2="276.42" gradientUnits="userSpaceOnUse">
      <stop stop-color="#fff"/>
      <stop offset="1" stop-color="#F5F5F5"/>
    </linearGradient>
    <radialGradient id="e" cx="0" cy="0" r="1" gradientTransform="matrix(0 41.9399 -10.8225 0 180.5 270.75)" gradientUnits="userSpaceOnUse">
      <stop stop-color="#E8E8E8"/>
      <stop offset="1" stop-color="#EFEFEF" stop-opacity=".5"/>
    </radialGradient>
    <radialGradient id="f" cx="0" cy="0" r="1" gradientTransform="matrix(0 11.1574 -10.2219 0 10.22 11.16)" gradientUnits="userSpaceOnUse">
      <stop stop-color="#FBB"/>
      <stop offset="1" stop-color="#FBB" stop-opacity="0"/>
    </radialGradient>
  </defs>
</svg>
