<svg xmlns="http://www.w3.org/2000/svg" fill="none" viewBox="0 0 100 32">
  <path fill="#FF6B0A" fill-rule="evenodd" d="M43.85 1.1H0v30h43.85l11.53-15-11.53-15Zm-24.2 12.98-.2-.17-.5-.4a3.94 3.94 0 0 0-1.55-.76 3.77 3.77 0 0 0-1.93 0c-.91.27-1.55.88-1.97 1.71a3.8 3.8 0 0 0-.35 2.2c.07.6.27 1.16.62 1.66a3.1 3.1 0 0 0 2.22 1.3c.84.11 1.65 0 2.41-.36.26-.12.26-.13.26-.41v-.81c-.02-.02-.06-.02-.12-.02h-2.55c-.07 0-.1 0-.12-.02l-.01-.1v-3.1c0-.06.02-.09.08-.08h6.25c.04 0 .08 0 .07.06 0 .03.02.05.04.07a.1.1 0 0 1 .03.1v5.71c0 .12-.04.2-.13.27a9.2 9.2 0 0 1-3.88 1.93c-.87.2-1.74.25-2.62.18a7.19 7.19 0 0 1-2.94-.85 6.46 6.46 0 0 1-3.22-4.17 7.32 7.32 0 0 1-.21-2.48 6.86 6.86 0 0 1 5.35-6.18 8.2 8.2 0 0 1 2.52-.16 7.2 7.2 0 0 1 4.7 1.93c.1.08.1.14.01.25l-1.42 1.7-.72.86v.01l-.01.01a.35.35 0 0 1-.1.1Zm12.1-4.9c1.77.01 3.47.64 4.9 1.94a6.56 6.56 0 0 1 2.07 3.75 6.8 6.8 0 0 1-.73 4.67 6.76 6.76 0 0 1-4.36 3.36 7.5 7.5 0 0 1-4.88-.31 6.74 6.74 0 0 1-4.03-4.52 6.69 6.69 0 0 1 .65-5.45 6.76 6.76 0 0 1 4.31-3.2 7.85 7.85 0 0 1 2.07-.24Zm-.42 3.52c-.96.02-1.96.58-2.59 1.73a3.68 3.68 0 0 0-.36 2.49 3.36 3.36 0 0 0 3.73 2.75A3.1 3.1 0 0 0 34.59 18c.46-.84.55-1.73.34-2.66-.35-1.53-1.63-2.63-3.6-2.63Z" clip-rule="evenodd"/>
  <path fill="#010101" fill-rule="evenodd" d="M99.23 1.1H55.38v30h43.85v-30ZM69.77 9.36v13.18c0 .08.01.12.1.11a.48.48 0 0 1 .1 0h3.35l.12-.01c.02-.02.02-.05.02-.11V9.38a.47.47 0 0 1 0-.1c0-.07-.02-.1-.1-.1h-3.47c-.06 0-.1 0-.1.02-.02.01-.02.04-.02.1v.06Zm18.35-.18H77.01c-.06 0-.08.03-.08.08v3.24c0 .07 0 .1.02.12l.1.01h3.5c.12 0 .17 0 .2.03s.03.08.03.19v9.79l.13.01h3.34c.1 0 .16 0 .19-.03.02-.02.02-.07.02-.17v-9.69l.01-.11c.02-.02.06-.02.13-.02h3.56c.15 0 .15 0 .15-.15V9.32l-.01-.12c-.02-.02-.05-.02-.12-.02h-.06Z" clip-rule="evenodd"/>
</svg>
