<svg id="tryzub" xmlns="http://www.w3.org/2000/svg" fill="none"
  viewBox="0 0 32 52">
  <g clip-path="url(#a)">
    <path fill="#F2CD13"
      d="M29.05 4.84c-8.22 7.97-6.96 20.38-6.9 20.9l.11 1.01.98.12c.29.06 1.96.41 1.73 3.07-.18 2.3-2.7 2.66-3.74 2.78-.86-1.18-3.68-6.09-3.97-20.14v-2.13s.23-5.02.46-7.15L16.06-.36l-1.73 3.54c.23 2.13.46 7.15.46 7.15v2.13c-.28 14.06-3.1 19.02-3.96 20.14-1.1-.06-3.57-.47-3.74-2.78-.23-2.65 1.44-3 1.73-3.07l.97-.12.12-1c.06-.53 1.32-12.94-6.9-20.91L1 2.89V41.1h8.33c.7 5.6 5.7 9.8 5.92 9.98l.75.65.75-.65c.23-.18 5.28-4.37 5.92-9.98H31V2.89l-1.95 1.95ZM7.6 24.63a4.66 4.66 0 0 0-2.87 4.07H3.4V8.97c4.2 5.8 4.26 13.17 4.2 15.66Zm1.55 12.81.06 1.18h-5.8v-7.5H4.9c.63 2.37 2.7 3.37 4.6 3.78-.35 1.18-.35 2.37-.35 2.54Zm2.41-.06c0-.65.06-1.6.35-2.18 2.13.47 2.7 2.24 2.87 3.48h-3.16l-.06-1.3Zm3.28 9.81c-1.2-1.48-2.64-3.6-3.05-6.08h3.05v6.08Zm1.5-12.46c-.12.11-.24.3-.35.47-.11-.18-.23-.3-.34-.47a6.21 6.21 0 0 0-2.25-1.66c.8-1.42 1.79-3.78 2.59-7.74.8 3.96 1.78 6.38 2.59 7.74a5.6 5.6 0 0 0-2.25 1.66Zm.86 12.4v-6.02h3.04c-.34 2.42-1.78 4.54-3.04 6.02Zm3.27-9.75-.05 1.24h-3.17c.18-1.24.75-3 2.88-3.48.29.65.34 1.6.34 2.24Zm3.97-12.75c-.12-2.43 0-9.81 4.2-15.66V28.7h-1.33c-.23-2.42-1.6-3.6-2.87-4.07Zm-1.61 14 .06-1.19c0-.17.05-1.36-.3-2.54 1.85-.35 3.92-1.41 4.6-3.78h1.5v7.5h-5.86Z" />
  </g>
  <defs>
    <clipPath id="a">
      <path fill="#fff" d="M0 0h32v52H0z" />
    </clipPath>
  </defs>
</svg>
